{
    "asset": {
        "version": "2.0",
        "generator": "Open Asset Import Library (assimp v5.4.0)"
    },
    "extensionsUsed": [
        "KHR_materials_volume",
        "FB_ngon_encoding"
    ],
    "accessors": [
        {
            "bufferView": 0,
            "byteOffset": 0,
            "componentType": 5126,
            "count": 282159,
            "type": "VEC3",
            "max": [
                0.4715900123119354,
                0.22268100082874298,
                0.5297110080718994
            ],
            "min": [
                -0.4715900123119354,
                -0.2202499955892563,
                -0.532384991645813
            ]
        },
        {
            "bufferView": 1,
            "byteOffset": 0,
            "componentType": 5126,
            "count": 282159,
            "type": "VEC3",
            "max": [
                0.9999970197677612,
                0.9999994039535522,
                0.9999887943267822
            ],
            "min": [
                -0.9999990463256836,
                -0.9999992847442627,
                -0.9999432563781738
            ]
        },
        {
            "bufferView": 2,
            "byteOffset": 0,
            "componentType": 5126,
            "count": 282159,
            "type": "VEC2",
            "max": [
                0.9995779991149902,
                0.9995759725570679
            ],
            "min": [
                0.0004220000118948519,
                0.0004240274429321289
            ]
        },
        {
            "bufferView": 3,
            "byteOffset": 0,
            "componentType": 5125,
            "count": 1499955,
            "type": "SCALAR",
            "max": [
                282158
            ],
            "min": [
                0
            ]
        }
    ],
    "buffers": [
        {
            "byteLength": 15028908,
            "uri": "jersey_0.bin"
        }
    ],
    "bufferViews": [
        {
            "buffer": 0,
            "byteOffset": 0,
            "byteLength": 3385908,
            "target": 34962
        },
        {
            "buffer": 0,
            "byteOffset": 3385908,
            "byteLength": 3385908,
            "target": 34962
        },
        {
            "buffer": 0,
            "byteOffset": 6771816,
            "byteLength": 2257272,
            "target": 34962
        },
        {
            "buffer": 0,
            "byteOffset": 9029088,
            "byteLength": 5999820,
            "target": 34963
        }
    ],
    "images": [
        {
            "uri": "textures/image_1.png"
        },
        {
            "uri": "textures/image_0.png"
        },
        {
            "uri": "textures/image_2.png"
        }
    ],
    "materials": [
        {
            "name": "Material.001",
            "pbrMetallicRoughness": {
                "baseColorTexture": {
                    "index": 0
                },
                "metallicRoughnessTexture": {
                    "index": 1
                },
                "metallicFactor": 0.800000011920929
            },
            "normalTexture": {
                "index": 2
            },
            "doubleSided": true
        }
    ],
    "meshes": [
        {
            "name": "meshes[0]",
            "primitives": [
                {
                    "mode": 4,
                    "material": 0,
                    "indices": 3,
                    "attributes": {
                        "POSITION": 0,
                        "NORMAL": 1,
                        "TEXCOORD_0": 2
                    }
                }
            ]
        }
    ],
    "nodes": [
        {
            "name": "jersey",
            "children": [
                1
            ]
        },
        {
            "name": "texture_pbr_v128",
            "matrix": [
                1.0,
                0.0,
                0.0,
                0.0,
                0.0,
                -3.029462618542311e-7,
                0.9999999403953552,
                0.0,
                0.0,
                -0.9999999403953552,
                -3.029462618542311e-7,
                0.0,
                0.0,
                0.0,
                0.0,
                1.0
            ],
            "mesh": 0,
            "extras": {
                "name": "texture_pbr_v128"
            }
        }
    ],
    "samplers": [
        {
            "magFilter": 9729,
            "minFilter": 9987
        },
        {
            "magFilter": 9729,
            "minFilter": 9987
        },
        {
            "magFilter": 9729,
            "minFilter": 9987
        }
    ],
    "scenes": [
        {
            "nodes": [
                0
            ]
        }
    ],
    "textures": [
        {
            "source": 0,
            "sampler": 0
        },
        {
            "source": 1,
            "sampler": 1
        },
        {
            "source": 2,
            "sampler": 2
        }
    ],
    "scene": 0
}